<svg width="23" height="26" viewBox="0 0 23 26" fill="none" xmlns="http://www.w3.org/2000/svg">
<path d="M20.4043 15.9878L22.9258 15.9878L22.9258 13.8941L15.6369 13.8941C15.5043 16.0665 13.6801 17.7902 11.4502 17.7902C9.22029 17.7902 7.39607 16.0665 7.2635 13.8941L0.446527 13.8941L0.446526 15.9878L2.52794 15.9878C2.63931 16.4181 2.78514 16.8405 2.96014 17.255C3.159 17.722 3.39498 18.168 3.66808 18.5904L1.84651 20.3929L4.71542 23.2317L6.53964 21.4266C6.96123 21.6916 7.40668 21.9225 7.87069 22.1166C8.39303 22.3344 8.93128 22.5049 9.48014 22.623L9.48014 25.1338L13.5422 25.1338L13.5422 22.602C14.0593 22.4839 14.5657 22.3213 15.0589 22.1166C15.5573 21.9093 16.032 21.6601 16.4801 21.3715L18.2725 23.1451L21.144 20.3037L19.3225 18.5012C19.5717 18.1051 19.7865 17.6879 19.9721 17.255C20.1471 16.8405 20.2929 16.4181 20.4043 15.9878Z" fill="#FFB342"/>
<path d="M19.3207 4.78514V9.01277C19.3207 9.29966 19.0837 9.53243 18.7916 9.53243H18.4167C18.1246 9.53243 17.8875 9.29966 17.8875 9.01277V3.68629C16.8016 2.97717 15.5834 2.44669 14.277 2.14355V9.4783C14.277 9.76519 14.0399 9.99795 13.7478 9.99795H9.61354C9.32138 9.99795 9.08436 9.76519 9.08436 9.4783V2.14355C7.79447 2.44669 6.57625 2.98258 5.49032 3.68629V9.01277C5.49032 9.29966 5.25329 9.53243 4.96113 9.53243H4.5863C4.29414 9.53243 4.05711 9.29966 4.05711 9.01277V4.78514C1.84116 6.79881 0.446539 9.67317 0.446539 12.8723H22.9258C22.9313 9.67317 21.5422 6.79881 19.3207 4.78514Z" fill="#FFB342"/>
<path d="M13.2189 8.60296C13.2189 8.84489 13.0416 9.0405 12.8185 9.0405H10.5538C10.3365 9.0405 10.1535 8.84489 10.1535 8.60296V1.30375C10.1535 1.06182 10.3308 0.866211 10.5538 0.866211H12.8185C13.0359 0.866211 13.2189 1.06182 13.2189 1.30375V8.60296Z" fill="#FFB342"/>
</svg>
